<svg width="966" height="177" viewBox="0 0 966 177" fill="none" xmlns="http://www.w3.org/2000/svg">
<mask id="mask0_1078_6810" style="mask-type:alpha" maskUnits="userSpaceOnUse" x="0" y="0" width="966" height="177">
<rect y="0.861816" width="966" height="175.274" rx="11.9505" fill="#EEF4FF"/>
</mask>
<g mask="url(#mask0_1078_6810)">
<g opacity="0.5">
<path d="M867.005 163.484C920.35 81.8989 845.438 36.2869 801.313 23.6789C718.1 2.26835 740.49 55.6987 664.702 68.1019C588.914 80.5052 654.393 110.913 655.873 156.106C657.353 201.298 567.349 156.749 572.079 239.783C576.809 322.817 724.105 363.319 692.228 250.415C660.35 137.511 800.324 265.465 867.005 163.484Z" stroke="#F4F4F4" stroke-width="1.99175"/>
<path d="M835.044 165.48C876.104 102.621 818.486 67.5047 784.544 57.8041C720.535 41.333 737.745 82.485 679.439 92.059C621.132 101.633 671.497 125.039 672.623 159.851C673.75 194.663 604.523 160.37 608.14 224.33C611.757 288.291 725.06 319.452 700.567 232.489C676.073 145.526 783.72 244.054 835.044 165.48Z" stroke="#F4F4F4" stroke-width="1.99175"/>
<path d="M896.62 161.549C961.388 62.4295 870.476 7.04156 816.924 -8.2625C715.93 -34.2495 743.092 30.6493 651.102 45.7359C559.112 60.8224 638.578 97.7436 640.363 152.641C642.147 207.538 532.918 153.446 538.637 254.31C544.357 355.174 723.125 404.336 684.464 267.194C645.802 130.052 815.66 285.448 896.62 161.549Z" stroke="#F4F4F4" stroke-width="1.99175"/>
<path d="M921.471 160.03C995.777 46.4197 891.408 -17.1104 829.935 -34.6742C714.006 -64.5019 745.205 9.90935 639.624 27.1726C534.043 44.4359 625.267 86.7912 627.335 149.728C629.402 212.664 504.01 150.613 510.61 266.248C517.21 381.883 722.418 438.307 677.994 281.07C633.57 123.833 828.588 302.042 921.471 160.03Z" stroke="#F4F4F4" stroke-width="1.99175"/>
<path d="M957.024 157.648C1045.07 22.8646 921.51 -52.4352 848.724 -73.2371C711.459 -108.558 748.368 -20.3177 623.334 0.208398C498.3 20.7345 606.305 70.9262 608.723 145.571C611.141 220.216 462.685 146.68 470.445 283.827C478.205 420.974 721.178 487.796 668.649 301.326C616.119 114.855 846.967 326.127 957.024 157.648Z" stroke="#F4F4F4" stroke-width="1.99175"/>
<path d="M998.513 154.821C1102.61 -4.77499 956.674 -93.8382 870.69 -118.42C708.534 -160.152 752.09 -55.7212 604.353 -31.3527C456.616 -6.98409 584.193 52.3671 587.007 140.724C589.821 229.082 414.465 142.121 423.555 304.459C432.646 466.798 719.676 545.758 657.72 325.06C595.764 104.361 868.386 354.316 998.513 154.821Z" stroke="#F4F4F4" stroke-width="1.99175"/>
</g>
<mask id="mask1_1078_6810" style="mask-type:alpha" maskUnits="userSpaceOnUse" x="780" y="-2" width="187" height="179">
<path d="M780 7.7163C780 2.35014 784.35 -2 789.716 -2H956.513C961.879 -2 966.229 2.35013 966.229 7.71629V166.416C966.229 171.782 961.879 176.132 956.513 176.132H789.716C784.35 176.132 780 171.782 780 166.416V7.7163Z" fill="#FF7F4D"/>
</mask>
<g mask="url(#mask1_1078_6810)">
<path d="M861.566 190.425C864.217 187.083 865.679 184.301 866.459 182.093L866.989 182.422C869.786 169.906 864.409 157.733 864.409 157.733L846.614 152.749C846.614 152.749 843.872 161.331 841.63 166.616C838.142 171.317 832.494 172.813 832.494 172.813L829.045 195.573C829.042 195.576 853.926 200.061 861.566 190.425Z" fill="#E54728"/>
<path d="M887.23 134.024C898.679 140.681 910.112 144.035 923.331 143.207L960.209 124.763C964.904 111.526 968.538 97.6399 967.88 83.6108C967.222 69.5816 961.79 55.2934 950.951 46.3641C945.836 42.1508 939.734 39.2627 934.655 35.0037C927.471 28.9777 922.454 20.3104 914.201 15.8564C901.11 8.79153 882.779 11.7923 876.506 25.6235C866.986 24.6273 855.33 34.0349 863.23 59.8815C865.393 66.9616 868.966 76.3783 867.793 83.6869C864.409 104.805 871.8 125.055 887.23 134.024Z" fill="#2E0031"/>
<path d="M970.852 129.954C966.523 98.8157 940.81 93.4052 940.81 93.4052L887.98 95.2727C887.98 95.2727 874.774 95.8424 865.055 107.891C855.337 119.94 850.478 124.799 850.103 136.014C849.728 147.228 856.458 163.301 859.447 168.907C862.438 174.512 860.193 189.465 860.193 189.465C860.193 189.465 900.404 227.966 960.71 219.491C958.964 214.333 957.124 208.865 956.612 204.429C969.715 184.612 974.456 155.901 970.852 129.954Z" fill="#FF572F"/>
<path d="M858.825 187.828C858.721 188.31 858.968 188.815 859.465 188.952C859.921 189.077 860.485 188.8 860.589 188.313C861.512 184.048 861.737 179.642 861.244 175.307C860.744 170.902 859.562 166.615 857.716 162.585C856.698 160.364 855.471 158.244 854.054 156.251C853.768 155.849 853.256 155.657 852.805 155.922C852.409 156.154 852.189 156.769 852.476 157.171C854.916 160.599 856.777 164.41 857.987 168.437C859.193 172.443 859.763 176.62 859.659 180.803C859.602 183.17 859.324 185.516 858.825 187.828Z" fill="#180205"/>
<path d="M925.233 55.2783C925.732 45.4351 917.135 46.806 914.89 51.4154C914.89 51.4154 904.922 51.7901 898.817 42.5683C892.711 33.3496 882.95 32.725 878.841 38.0838C878.841 38.0838 872.653 36.9627 871.779 46.3064C870.907 55.65 874.664 85.0549 893.595 84.6833C893.595 84.6833 893.461 91.9096 892.961 94.4016L887.977 95.2729C887.977 95.2729 891.852 107.157 910.53 107.858C933.83 108.729 940.807 93.4054 940.807 93.4054L927.1 90.167C927.1 90.167 917.882 77.9566 916.136 63.7537C916.136 63.7507 924.733 65.1216 925.233 55.2783Z" fill="#FFBEAE"/>
<path d="M928.764 105.444C932.273 103.881 935.527 101.773 938.403 99.2227C938.772 98.8936 938.738 98.263 938.403 97.9309C938.037 97.5654 937.48 97.6019 937.111 97.9309C932.237 102.251 926.18 105.154 919.786 106.355C913.354 107.561 906.664 106.875 900.559 104.557C897.144 103.259 893.899 101.422 891.045 99.1435C890.661 98.8358 890.128 98.7657 889.753 99.1435C889.433 99.4633 889.366 100.127 889.753 100.435C895.203 104.789 901.766 107.558 908.681 108.463C915.508 109.355 922.485 108.24 928.764 105.444Z" fill="#180205"/>
<path d="M926.487 171.023C927.13 168.617 927.776 166.21 928.419 163.803C929.442 159.983 930.463 156.165 931.487 152.345C931.721 151.468 931.956 150.593 932.19 149.716C932.495 148.58 930.731 148.092 930.427 149.229C929.784 151.635 929.138 154.042 928.495 156.449C927.471 160.269 926.451 164.086 925.427 167.907C925.193 168.784 924.958 169.658 924.723 170.536C924.419 171.675 926.183 172.16 926.487 171.023Z" fill="#180205"/>
<path d="M939.435 140.505L900.936 97.8934C900.936 97.8934 883.242 99.8859 869.384 103.405C855.525 106.923 842.885 113.595 842.885 113.595C842.885 113.595 835.896 106.865 823.686 105.254C811.475 103.642 794.531 102.131 794.531 102.131L789.379 108.376L834.9 130.975L937.382 150.293L939.435 140.505Z" fill="#FCF4E6"/>
<path d="M881.5 164.427L939.435 152.753L900.449 106.095L850.084 116.956H840.006L786.555 107.896L823.561 152.753L866.173 162.559L881.5 164.427Z" fill="#0E6AC3"/>
<path d="M850.084 116.956H840.006L866.173 162.559L881.5 164.426L850.084 116.956Z" fill="#1058C1"/>
<path d="M870.657 157.735L878.63 164.425C878.63 164.425 887.352 160.261 891.09 156.115C891.09 156.115 884.61 151.593 883.614 140.629C882.618 129.665 877.259 130.411 874.767 131.657C872.275 132.903 872.899 136.641 869.408 137.388C865.92 138.134 852.713 129.165 846.855 131.532C840.999 133.899 842.37 140.751 846.108 145.114C849.849 149.473 858.572 156.029 870.657 157.735Z" fill="#FFBEAE"/>
<path d="M945.044 211.896C960.015 209.757 968.642 183.746 970.827 158.841C972.079 144.571 925.607 170.78 925.607 170.78C919.252 168.912 888.976 152.751 888.976 152.751C882.246 159.392 875.894 163.678 875.894 163.678C883.367 174.893 921.494 215.262 945.044 211.896Z" fill="#FF572F"/>
<path d="M928.879 171.51C928.784 171.47 929.049 171.581 928.879 171.51V171.51Z" fill="#180205"/>
<path d="M888.513 153.54C888.72 153.646 888.928 153.753 889.135 153.862C889.296 153.707 889.461 153.555 889.622 153.396C889.25 153.445 888.882 153.491 888.513 153.54Z" fill="#180205"/>
<path d="M889.135 153.863C888.927 153.757 888.72 153.65 888.513 153.54C888.882 153.492 889.25 153.446 889.622 153.397C889.46 153.556 889.296 153.705 889.135 153.863C890.143 154.387 891.154 154.914 892.166 155.435C895.139 156.974 898.119 158.503 901.101 160.023C904.858 161.937 908.62 163.838 912.398 165.714C915.968 167.487 919.551 169.245 923.164 170.93C925.586 172.06 928.026 173.245 930.558 174.113C930.725 174.171 930.896 174.226 931.07 174.278C932.2 174.613 932.681 172.849 931.557 172.514C930.649 172.246 929.772 171.874 928.898 171.512C928.891 171.509 928.888 171.509 928.882 171.506C929.05 171.576 928.788 171.466 928.882 171.506C928.876 171.503 928.876 171.503 928.87 171.5C928.806 171.472 928.739 171.445 928.675 171.417C928.511 171.347 928.346 171.277 928.185 171.207C927.865 171.07 927.548 170.93 927.231 170.787C926.512 170.467 925.799 170.141 925.086 169.812C921.58 168.194 918.11 166.5 914.649 164.788C910.844 162.908 907.054 160.998 903.27 159.073C900.157 157.489 897.046 155.895 893.942 154.29C892.464 153.525 890.999 152.724 889.506 151.99C889.485 151.981 889.464 151.968 889.445 151.956C889.08 151.767 888.638 151.804 888.336 152.099C884.592 155.789 880.571 159.228 876.297 162.281C876.013 162.485 875.727 162.686 875.437 162.884C875.047 163.149 874.822 163.7 875.108 164.133C876.726 166.555 878.597 168.819 880.485 171.033C883.2 174.214 886.048 177.282 888.982 180.261C892.461 183.798 896.065 187.213 899.794 190.482C903.724 193.928 907.797 197.215 912.044 200.259C916.081 203.15 920.288 205.831 924.73 208.058C928.648 210.023 932.794 211.692 937.117 212.499C941.071 213.237 945.257 213.301 949.017 211.704C953.477 209.812 956.865 206.029 959.457 202.047C962.753 196.984 965.014 191.25 966.775 185.495C968.801 178.875 970.144 172.057 971.046 165.196C971.268 163.502 971.46 161.802 971.625 160.099C971.674 159.609 971.171 159.186 970.711 159.186C970.178 159.186 969.846 159.606 969.797 160.099C969.136 166.915 968.021 173.693 966.321 180.328C964.795 186.29 962.817 192.207 959.914 197.654C957.657 201.892 954.698 206.144 950.683 208.749C948.901 209.907 947.116 210.647 944.992 210.979C944.947 210.985 944.758 211.013 944.742 211.016C944.764 211.013 944.782 211.01 944.803 211.01C944.752 211.016 944.739 211.019 944.742 211.016C944.669 211.025 944.593 211.034 944.52 211.043C944.289 211.071 944.057 211.092 943.825 211.11C943.372 211.147 942.915 211.165 942.458 211.171C941.531 211.183 940.605 211.138 939.685 211.043C939.466 211.022 939.25 210.994 939.033 210.967C938.957 210.958 938.939 210.955 938.936 210.955C938.939 210.955 938.933 210.955 938.936 210.955C938.933 210.955 938.914 210.952 938.838 210.94C938.707 210.921 938.573 210.9 938.442 210.879C937.967 210.803 937.492 210.717 937.02 210.62C936.011 210.413 935.015 210.157 934.028 209.864C931.971 209.255 929.955 208.478 928.078 207.634C923.722 205.672 919.597 203.22 915.642 200.545C911.435 197.7 907.417 194.583 903.538 191.305C899.733 188.088 896.062 184.712 892.516 181.215C889.424 178.165 886.42 175.021 883.541 171.768C882.368 170.442 881.217 169.099 880.096 167.728C879.617 167.143 879.145 166.552 878.682 165.955C878.658 165.924 878.584 165.827 878.569 165.809C878.588 165.833 878.606 165.857 878.627 165.882C878.575 165.812 878.563 165.796 878.569 165.809C878.542 165.775 878.517 165.742 878.49 165.705C878.383 165.565 878.277 165.428 878.173 165.288C877.987 165.041 877.801 164.791 877.619 164.538C877.463 164.325 877.317 164.106 877.165 163.889C876.897 164.078 876.626 164.267 876.354 164.45C876.464 164.033 876.574 163.615 876.683 163.201C876.839 163.435 877.006 163.661 877.165 163.889C879.983 161.921 882.658 159.716 885.238 157.455C886.566 156.304 887.864 155.097 889.135 153.863Z" fill="#180205"/>
<path d="M878.628 165.897C878.609 165.872 878.591 165.848 878.569 165.823C878.56 165.814 878.572 165.829 878.628 165.897Z" fill="#180205"/>
<path d="M876.354 164.468C876.625 164.285 876.897 164.096 877.165 163.907C877.003 163.679 876.839 163.45 876.683 163.219C876.571 163.633 876.461 164.05 876.354 164.468Z" fill="#180205"/>
<path d="M832.408 135.257C830.416 130.511 814.76 120.972 805.995 131.452C797.227 141.932 809.733 156.111 809.733 156.111L813.221 165.918C820.697 168.659 831.662 162.429 831.662 162.429L829.17 158.941C831.662 150.968 828.423 147.696 828.423 147.696C832.655 145.177 834.4 140.004 832.408 135.257Z" fill="#FFBEAE"/>
<path d="M841.627 166.619C841.627 166.619 834.138 163.225 831.908 160.127C831.908 160.127 825.179 163.926 811.475 164.426C811.475 164.426 816.21 189.096 829.045 195.576L841.627 166.619Z" fill="#E54728"/>
<path d="M916.858 55.7778C916.937 53.6575 919.049 51.9636 921.123 52.2256C921.37 52.2561 921.58 51.9941 921.58 51.7686C921.58 51.4975 921.37 51.3421 921.123 51.3116C918.54 50.9857 916.042 53.2096 915.944 55.7778C915.923 56.3658 916.837 56.3658 916.858 55.7778Z" fill="#180205"/>
<path d="M895.712 58.4643C896.592 58.3028 897.113 57.1177 896.875 55.823C896.635 54.5282 895.727 53.6081 894.846 53.7696C893.966 53.9311 893.445 55.1162 893.683 56.4109C893.92 57.7088 894.831 58.6258 895.712 58.4643Z" fill="#180205"/>
<path d="M894.995 58.0207C895.338 58.0207 895.617 57.7424 895.617 57.3992C895.617 57.056 895.338 56.7777 894.995 56.7777C894.652 56.7777 894.374 57.056 894.374 57.3992C894.374 57.7424 894.652 58.0207 894.995 58.0207Z" fill="white"/>
<path d="M882.021 62.0089C882.859 61.6886 883.156 60.4314 882.686 59.2008C882.215 57.9702 881.155 57.2322 880.317 57.5525C879.48 57.8727 879.182 59.1299 879.652 60.3605C880.123 61.5912 881.183 62.3291 882.021 62.0089Z" fill="#180205"/>
<path d="M881.225 61.6854C881.563 61.6215 881.785 61.2985 881.724 60.9604C881.661 60.6222 881.338 60.3998 880.999 60.4607C880.661 60.5217 880.439 60.8476 880.5 61.1858C880.561 61.524 880.887 61.7494 881.225 61.6854Z" fill="white"/>
<path d="M892.138 50.0363C892.5 49.3874 893.094 48.8908 893.813 48.6867C894.599 48.4612 895.434 48.6166 896.117 49.0584C896.61 49.3783 897.07 48.5892 896.577 48.2693C895.699 47.6996 894.578 47.5168 893.57 47.8063C892.631 48.0744 891.821 48.7233 891.349 49.5763C891.062 50.0911 891.851 50.5511 892.138 50.0363Z" fill="#180205"/>
<path d="M876.903 54.827C877.266 54.178 877.86 53.6815 878.579 53.4774C879.365 53.2519 880.199 53.4073 880.882 53.849C881.375 54.1689 881.835 53.3799 881.342 53.06C880.465 52.4903 879.343 52.3075 878.335 52.5969C877.397 52.865 876.586 53.5139 876.114 54.3669C875.828 54.8787 876.617 55.3418 876.903 54.827Z" fill="#180205"/>
<path d="M886.161 65.8324C886.247 65.6586 886.323 65.4817 886.399 65.3079C886.228 65.2682 886.057 65.2194 885.887 65.1615C885.978 65.3872 886.07 65.6098 886.161 65.8324Z" fill="#180205"/>
<path d="M885.643 66.0418C886.6 66.3678 887.602 66.4317 888.595 66.2703C889.174 66.1758 888.927 65.2954 888.351 65.3898C887.693 65.4965 887.035 65.4599 886.396 65.3076C886.319 65.4843 886.243 65.661 886.158 65.8316C886.066 65.6092 885.975 65.3837 885.884 65.1613C886.051 65.2192 886.222 65.268 886.396 65.3076C887.178 63.5132 887.55 61.5604 887.437 59.5984C887.404 59.0135 886.49 59.0104 886.523 59.5984C886.636 61.5908 886.249 63.5802 885.366 65.3716C885.235 65.6457 885.351 65.9443 885.643 66.0418Z" fill="#180205"/>
<path d="M895.672 69.287C896.047 68.8391 895.404 68.1902 895.026 68.6411C893.576 70.3654 891.187 71.1575 889 70.5878C888.43 70.4386 888.187 71.322 888.756 71.4683C891.236 72.1141 894.015 71.255 895.672 69.287Z" fill="#180205"/>
<path d="M907.581 78.9539C902.307 84.4376 893.594 84.6843 893.594 84.6843L893.347 90.7408C905.92 88.7971 907.581 78.9539 907.581 78.9539Z" fill="#180205"/>
<path d="M823.872 147.871C821.666 148.422 819.342 148.377 817.148 147.789C816.012 147.484 815.525 149.248 816.664 149.553C820.786 150.659 825.395 150.037 828.923 147.569C832.101 145.348 834.203 141.814 834.084 137.869C834.017 135.657 833.273 133.552 831.878 131.831C831.567 131.447 830.909 131.508 830.586 131.831C830.209 132.209 830.276 132.739 830.586 133.123C832.612 135.621 832.756 139.389 831.321 142.198C829.84 145.099 826.992 147.088 823.872 147.871Z" fill="#180205"/>
</g>
</g>
</svg>
